<?xml version="1.0" encoding="utf-8"?>
<!-- Generator: Adobe Illustrator 19.1.0, SVG Export Plug-In . SVG Version: 6.00 Build 0)  -->
<svg version="1.1" id="Layer_1" xmlns="http://www.w3.org/2000/svg" xmlns:xlink="http://www.w3.org/1999/xlink" x="0px" y="0px"
	 viewBox="0 0 118.4 100.7" style="enable-background:new 0 0 118.4 100.7;" xml:space="preserve">
<style type="text/css">
	.st0{fill:#F15B5B;}
</style>
<g>
	<g>
		<g>
			<path class="st0" d="M68.3,37.5h1.5c-2.3,2.7-4.6,4.5-6.9,5.5c-2.3,1-4.7,1.5-7.3,1.5c-2.7,0-5.3-0.6-7.7-1.9
				c-2.4-1.3-4.3-3.1-5.7-5.5c-1.4-2.4-2.1-5.2-2.1-8.4c0-1.6,0.2-3.3,0.6-5.1c0.7-2.9,1.9-5.5,3.6-8c1.7-2.4,4-4.4,6.7-5.9
				c2.7-1.5,5.7-2.2,9-2.2c3.5,0,6.4,0.8,8.6,2.4c2.2,1.6,3.4,3.9,3.4,6.8c0,1.5-0.3,2.5-0.9,3.2c-0.6,0.7-1.7,1.1-3.1,1.1
				c-0.9,0-1.6-0.2-2.1-0.6c-0.6-0.4-0.8-1.1-0.8-1.9c0-0.9,0.3-1.6,1-2.2c0.6-0.5,1.4-0.8,2.3-0.8c1,0,1.9,0.3,2.7,1
				c0-1.6-0.6-2.9-1.6-4.1c-1.1-1.2-2.4-2.1-4-2.7c-1.6-0.6-3.1-1-4.7-1c-3.5,0-6.4,1.4-8.8,4.3c-2.4,2.9-4,6.5-5,10.8
				c-0.6,2.4-0.8,4.7-0.8,6.8c0,2.7,0.4,5,1.3,6.9c0.9,1.9,2.1,3.3,3.6,4.3c1.5,1,3.2,1.5,5.1,1.5C60.6,43.2,64.6,41.3,68.3,37.5z"
				/>
		</g>
		<g>
			<path class="st0" d="M75.9,35.7c0-3.1-1.8-4.7-5.4-4.7H60.4l-2.7,12.1h5c1.4,0,2.7-0.4,3.7-1.3c1.1-0.9,1.8-2,2.3-3.4h0.8
				l-2.5,11.5h-0.6c0-3.8-1.3-5.7-4-5.7h-4.9l-3.6,15.3h10.5c2.1,0,3.8-0.5,5.3-1.5c1.5-1,2.5-2.3,3.1-4.1h0.8l-1.6,6.6H45.6v-1.1
				H49L55.6,31h-3.9v-1.1h26.7l-1.9,7.6h-0.8C75.8,36.7,75.9,36.1,75.9,35.7z"/>
		</g>
		<g>
			<polygon class="st0" points="61.7,43.6 69.7,37.5 67.8,45.4 			"/>
		</g>
	</g>
	<g>
		<path class="st0" d="M13.6,77.2h0.2v2.6h-0.2c-0.1-0.3-0.2-0.6-0.4-0.8c-0.7,0.7-1.5,1.1-2.5,1.1c-1.1,0-2-0.3-2.6-1
			c-0.7-0.7-1-1.6-1-2.7c0-0.7,0.2-1.4,0.5-2.1c0.3-0.6,0.8-1.1,1.3-1.4c0.6-0.3,1.2-0.5,1.9-0.5c0.6,0,1.1,0.1,1.5,0.3
			c0.5,0.2,0.8,0.5,1,0.8c0.2-0.3,0.3-0.6,0.3-1h0.2l0.1,2.8h-0.2c-0.2-1-0.5-1.7-1-2.1c-0.5-0.4-1.1-0.6-1.7-0.6
			c-0.8,0-1.4,0.3-1.9,0.9c-0.5,0.6-0.7,1.5-0.7,2.7c0,1.1,0.3,2,0.8,2.6c0.5,0.6,1.1,0.9,1.9,0.9c0.4,0,0.8-0.1,1.2-0.3
			c0.4-0.2,0.7-0.5,1-1C13.4,78.1,13.5,77.6,13.6,77.2z"/>
		<path class="st0" d="M15.6,77.4c0-0.8,0.3-1.4,0.8-1.9c0.5-0.5,1.2-0.7,2-0.7c0.8,0,1.5,0.2,2,0.7c0.5,0.5,0.8,1.1,0.8,2
			c0,0.8-0.3,1.5-0.8,2c-0.5,0.5-1.2,0.7-2.1,0.7c-0.8,0-1.5-0.2-2-0.7C15.9,78.8,15.6,78.2,15.6,77.4z M16.5,77.4
			c0,0.8,0.2,1.5,0.5,1.9c0.3,0.4,0.8,0.6,1.5,0.6c0.6,0,1-0.2,1.4-0.6c0.3-0.4,0.5-1,0.5-1.9c0-0.8-0.2-1.4-0.5-1.9
			c-0.3-0.4-0.8-0.6-1.5-0.6c-0.6,0-1.1,0.2-1.4,0.6C16.7,75.9,16.5,76.6,16.5,77.4z"/>
		<path class="st0" d="M26.3,74.8h1.7V75c-0.2,0-0.4,0.1-0.5,0.2c-0.1,0.1-0.2,0.2-0.2,0.3c0,0.1,0,0.3,0,0.6v1.7c0,0.4,0,0.8-0.1,1
			c0,0.2-0.1,0.4-0.3,0.6c-0.2,0.2-0.4,0.4-0.7,0.5c-0.3,0.1-0.6,0.2-1,0.2c-0.5,0-0.9-0.1-1.2-0.2c-0.3-0.2-0.6-0.4-0.7-0.6
			s-0.2-0.6-0.2-1l0-0.5v-1.6c0-0.4,0-0.7,0-0.8c0-0.1-0.1-0.2-0.2-0.2c-0.1,0-0.2-0.1-0.5-0.1h-0.1v-0.2h2.4V75h-0.1
			c-0.3,0-0.4,0-0.5,0.1s-0.1,0.1-0.2,0.2c0,0.1,0,0.4,0,0.8v1.6c0,0.6,0,1,0.1,1.2c0.1,0.2,0.2,0.4,0.4,0.6c0.2,0.2,0.6,0.3,1,0.3
			c0.3,0,0.6-0.1,0.9-0.2c0.3-0.1,0.5-0.3,0.6-0.4s0.2-0.4,0.2-0.5s0-0.5,0-0.9V76c0-0.3,0-0.5,0-0.6c0-0.1-0.1-0.2-0.2-0.3
			C26.7,75,26.5,75,26.3,75V74.8z"/>
		<path class="st0" d="M34.4,80H33c-0.2-0.2-0.6-0.6-1.1-1.4c-0.2-0.2-0.3-0.5-0.5-0.7c-0.2-0.2-0.3-0.3-0.4-0.4
			c-0.1,0-0.2-0.1-0.3-0.1h-0.2v1.2c0,0.4,0,0.7,0,0.8c0,0.1,0.1,0.2,0.2,0.3c0.1,0.1,0.2,0.1,0.5,0.1h0.2V80h-2.5v-0.2h0.2
			c0.2,0,0.4,0,0.5-0.1c0.1-0.1,0.1-0.1,0.2-0.3c0-0.1,0-0.4,0-0.8v-2.6c0-0.4,0-0.7,0-0.8c0-0.1-0.1-0.2-0.2-0.2
			C29.5,75,29.3,75,29,75h-0.1v-0.2l0.7,0c0.5,0,0.9,0,1.2,0c0.5,0,0.9,0,1.2,0.1c0.3,0.1,0.6,0.2,0.8,0.5c0.2,0.2,0.3,0.5,0.3,0.8
			c0,0.3-0.1,0.6-0.4,0.9c-0.3,0.2-0.6,0.4-1.1,0.4c0.2,0.1,0.6,0.5,1.1,1.1c0.4,0.5,0.7,0.9,0.9,1c0.2,0.2,0.5,0.3,0.8,0.3V80z
			 M30.5,77.3c0.2,0,0.4,0,0.6,0c0.2,0,0.4,0,0.5-0.1c0.2,0,0.3-0.1,0.4-0.2c0.1-0.1,0.2-0.2,0.2-0.3c0.1-0.1,0.1-0.3,0.1-0.5
			c0-0.4-0.1-0.7-0.3-0.9c-0.2-0.2-0.6-0.3-1.2-0.3c-0.1,0-0.2,0-0.3,0V77.3z"/>
		<path class="st0" d="M34.5,76h-0.2l0-1.3h5.1l0,1.3h-0.2c-0.1-0.3-0.1-0.6-0.2-0.7c-0.1-0.2-0.2-0.2-0.3-0.3
			c-0.1,0-0.3-0.1-0.6-0.1h-0.8v3.7c0,0.4,0,0.7,0,0.8c0,0.1,0.1,0.2,0.2,0.3c0.1,0.1,0.2,0.1,0.5,0.1h0.3V80h-2.6v-0.2h0.3
			c0.2,0,0.4,0,0.5-0.1c0.1-0.1,0.1-0.1,0.2-0.3c0-0.1,0-0.4,0-0.8V75h-0.8c-0.3,0-0.6,0-0.7,0c-0.1,0-0.2,0.1-0.3,0.3
			C34.6,75.5,34.5,75.7,34.5,76z"/>
		<path class="st0" d="M44.9,80.1l-3.7-4.9v3.6c0,0.3,0,0.5,0,0.6c0,0.1,0.1,0.2,0.3,0.3c0.1,0.1,0.3,0.1,0.6,0.1V80h-1.9v-0.2
			c0.2,0,0.4-0.1,0.6-0.1s0.2-0.2,0.2-0.2c0-0.1,0-0.3,0-0.6v-2.8c0-0.4,0-0.7-0.1-0.8c0-0.1-0.1-0.2-0.2-0.3S40.5,75,40.2,75v-0.2
			h1.5l3.1,4.1v-3.1c0-0.2,0-0.4-0.1-0.5s-0.1-0.2-0.3-0.2C44.4,75,44.2,75,44,75v-0.2h1.9V75c-0.2,0-0.4,0.1-0.5,0.1
			c-0.1,0.1-0.2,0.1-0.2,0.2c0,0.1-0.1,0.3-0.1,0.5v4.3H44.9z"/>
		<path class="st0" d="M50.9,78.4h0.2L51,80h-4.3v-0.2h0.1c0.3,0,0.4,0,0.5-0.1c0.1-0.1,0.1-0.2,0.1-0.3c0-0.1,0-0.4,0-0.8v-2.6
			c0-0.4,0-0.7,0-0.8c0-0.1-0.1-0.2-0.1-0.3C47.2,75,47,75,46.8,75v-0.2h3.7l0.1,1.3h-0.2c-0.1-0.4-0.2-0.6-0.3-0.8
			c-0.1-0.2-0.3-0.2-0.4-0.3c-0.2,0-0.4-0.1-0.8-0.1h-0.7v2.2h0.6c0.3,0,0.4,0,0.5-0.1c0.1,0,0.2-0.1,0.2-0.2c0-0.1,0-0.3,0-0.5h0.2
			v1.8h-0.2c0-0.3,0-0.5-0.1-0.6s-0.1-0.2-0.2-0.2c-0.1,0-0.3,0-0.5,0h-0.6v1.2c0,0.6,0,1,0.1,1.1c0.1,0.1,0.3,0.2,0.6,0.2h0.4
			c0.3,0,0.5,0,0.7-0.1c0.2-0.1,0.3-0.2,0.5-0.4C50.7,79.1,50.8,78.8,50.9,78.4z"/>
		<path class="st0" d="M54.8,77.7l1-1.7c0.2-0.3,0.3-0.5,0.3-0.6c0-0.1,0-0.2-0.1-0.3C55.8,75,55.7,75,55.4,75v-0.2h1.7V75
			c-0.2,0-0.4,0.1-0.6,0.3c-0.1,0.1-0.3,0.4-0.6,0.8l-1.2,1.9v0.7c0,0.4,0,0.7,0,0.8c0,0.1,0.1,0.2,0.2,0.3c0.1,0.1,0.3,0.1,0.5,0.1
			V80h-2.2v-0.2h0.1c0.2,0,0.4,0,0.5-0.1c0.1-0.1,0.1-0.1,0.2-0.3c0-0.1,0-0.4,0-0.8V78l-1.3-2.1c-0.3-0.4-0.4-0.7-0.5-0.8
			C52.2,75,52,75,51.8,75v-0.2h2.1V75c-0.4,0-0.6,0.1-0.6,0.3c0,0.1,0.1,0.2,0.2,0.4L54.8,77.7z"/>
		<path class="st0" d="M67.5,77.7h0.3L67.6,80h-6.2v-0.3h0.2c0.4,0,0.6,0,0.7-0.1c0.1-0.1,0.2-0.2,0.2-0.4c0-0.2,0-0.5,0-1.2v-3.6
			c0-0.6,0-0.9,0-1.1c0-0.2-0.1-0.3-0.2-0.4c-0.1-0.1-0.3-0.1-0.7-0.1v-0.3h5.3l0.2,1.9h-0.3c-0.1-0.5-0.3-0.9-0.4-1.1
			c-0.2-0.2-0.4-0.4-0.6-0.4c-0.2-0.1-0.6-0.1-1.1-0.1h-1v3.1h0.8c0.4,0,0.6,0,0.8-0.1c0.1-0.1,0.2-0.2,0.3-0.3
			c0-0.1,0.1-0.4,0.1-0.7h0.3v2.5h-0.3c0-0.4,0-0.7-0.1-0.8c-0.1-0.1-0.2-0.2-0.3-0.3c-0.1,0-0.4-0.1-0.7-0.1h-0.8V78
			c0,0.9,0.1,1.4,0.2,1.6c0.1,0.2,0.4,0.2,0.9,0.2h0.6c0.4,0,0.7-0.1,1-0.2c0.3-0.1,0.5-0.3,0.7-0.6C67.2,78.7,67.4,78.2,67.5,77.7z
			"/>
		<path class="st0" d="M73.5,78.5l0,1.5H69v-0.2h0.2c0.2,0,0.4,0,0.5-0.1c0.1-0.1,0.1-0.1,0.2-0.3c0-0.1,0-0.4,0-0.8v-2.6
			c0-0.4,0-0.7,0-0.8c0-0.1-0.1-0.2-0.2-0.2c-0.1,0-0.2-0.1-0.5-0.1H69v-0.2h2.5V75h-0.2c-0.3,0-0.4,0-0.5,0.1s-0.1,0.1-0.2,0.2
			s0,0.4,0,0.8v2.7c0,0.4,0,0.6,0,0.7c0,0.1,0.1,0.2,0.2,0.2s0.3,0.1,0.6,0.1h0.4c0.3,0,0.6,0,0.7-0.1c0.2-0.1,0.3-0.2,0.4-0.4
			c0.1-0.2,0.3-0.5,0.4-0.9H73.5z"/>
		<path class="st0" d="M74.2,75v-0.2h2.4V75h-0.1C76.2,75,76,75,76,75c-0.1,0-0.1,0.1-0.2,0.2c0,0.1,0,0.4,0,0.8v2.6
			c0,0.4,0,0.7,0,0.8c0,0.1,0.1,0.2,0.2,0.3c0.1,0.1,0.2,0.1,0.5,0.1h0.2V80h-2.4v-0.2h0.2c0.2,0,0.4,0,0.5-0.1
			c0.1-0.1,0.1-0.1,0.2-0.3c0-0.1,0-0.4,0-0.8v-2.6c0-0.4,0-0.7,0-0.8c0-0.1-0.1-0.2-0.2-0.2c-0.1,0-0.3-0.1-0.5-0.1H74.2z"/>
		<path class="st0" d="M77.5,80v-0.1l3.4-4.9h-1.6c-0.3,0-0.6,0-0.7,0c-0.1,0-0.2,0.1-0.4,0.3c-0.1,0.2-0.2,0.4-0.3,0.7h-0.2
			l0.2-1.2h3.9V75l-3.3,4.9H80c0.5,0,0.9,0,1-0.1c0.1-0.1,0.3-0.2,0.4-0.4c0.1-0.2,0.2-0.4,0.3-0.6h0.2L81.7,80H77.5z"/>
		<path class="st0" d="M86.1,78.1h-2L84,78.4c-0.2,0.5-0.3,0.8-0.3,0.9c0,0.2,0.1,0.3,0.2,0.4c0.1,0.1,0.2,0.1,0.4,0.1V80h-1.5v-0.2
			c0.2,0,0.4-0.1,0.5-0.2c0.1-0.1,0.2-0.4,0.4-0.8c0,0,0.1-0.2,0.2-0.4l1.5-3.6h0.1l1.7,4.1l0.2,0.5c0.1,0.1,0.1,0.2,0.2,0.3
			c0.1,0.1,0.2,0.1,0.4,0.1V80h-2v-0.2c0.3,0,0.4,0,0.5-0.1s0.1-0.1,0.1-0.2c0-0.1-0.1-0.2-0.2-0.5L86.1,78.1z M86,77.9l-0.9-2.2
			l-0.9,2.2H86z"/>
		<path class="st0" d="M91.3,77.2c0.6,0,1,0.2,1.3,0.4s0.4,0.6,0.4,0.9c0,0.3-0.1,0.6-0.3,0.8c-0.2,0.2-0.4,0.4-0.7,0.5
			C91.7,80,91.3,80,90.7,80h-2v-0.2h0.2c0.2,0,0.4,0,0.5-0.1c0.1-0.1,0.1-0.1,0.2-0.3c0-0.1,0-0.4,0-0.8v-2.5c0-0.4,0-0.7,0-0.8
			c0-0.1-0.1-0.2-0.2-0.3c-0.1,0-0.2-0.1-0.5-0.1h-0.1v-0.2l0.9,0l1,0c1.4,0,2.1,0.4,2.1,1.2c0,0.3-0.1,0.6-0.4,0.8
			C92.1,77,91.7,77.1,91.3,77.2z M90.3,77.1c0.1,0,0.1,0,0.2,0c0.6,0,0.9-0.1,1.1-0.3c0.2-0.2,0.3-0.5,0.3-0.8c0-0.3,0-0.5-0.1-0.6
			c-0.1-0.1-0.2-0.3-0.4-0.3c-0.2-0.1-0.4-0.1-0.8-0.1c-0.1,0-0.2,0-0.3,0V77.1z M90.3,77.3v1.2c0,0.5,0,0.8,0,0.9
			c0,0.1,0.1,0.2,0.1,0.3c0.1,0.1,0.2,0.1,0.5,0.1c0.4,0,0.7-0.1,0.9-0.3c0.2-0.2,0.3-0.5,0.3-0.9c0-0.4-0.1-0.7-0.3-1
			c-0.2-0.2-0.6-0.3-1.2-0.3C90.5,77.3,90.4,77.3,90.3,77.3z"/>
		<path class="st0" d="M98.3,78.4h0.2L98.4,80h-4.3v-0.2h0.1c0.3,0,0.4,0,0.5-0.1c0.1-0.1,0.1-0.2,0.1-0.3c0-0.1,0-0.4,0-0.8v-2.6
			c0-0.4,0-0.7,0-0.8c0-0.1-0.1-0.2-0.2-0.3c-0.1,0-0.2-0.1-0.5-0.1v-0.2h3.7l0.1,1.3h-0.2c-0.1-0.4-0.2-0.6-0.3-0.8
			c-0.1-0.2-0.3-0.2-0.4-0.3S96.7,75,96.3,75h-0.7v2.2h0.6c0.3,0,0.4,0,0.5-0.1c0.1,0,0.2-0.1,0.2-0.2c0-0.1,0-0.3,0-0.5h0.2v1.8
			h-0.2c0-0.3,0-0.5-0.1-0.6s-0.1-0.2-0.2-0.2c-0.1,0-0.3,0-0.5,0h-0.6v1.2c0,0.6,0,1,0.1,1.1s0.3,0.2,0.6,0.2h0.4
			c0.3,0,0.5,0,0.7-0.1c0.2-0.1,0.3-0.2,0.5-0.4C98.1,79.1,98.2,78.8,98.3,78.4z"/>
		<path class="st0" d="M99.6,76h-0.2l0-1.3h5.1l0,1.3h-0.2c-0.1-0.3-0.1-0.6-0.2-0.7c-0.1-0.2-0.2-0.2-0.3-0.3
			c-0.1,0-0.3-0.1-0.6-0.1h-0.8v3.7c0,0.4,0,0.7,0,0.8c0,0.1,0.1,0.2,0.2,0.3c0.1,0.1,0.2,0.1,0.5,0.1h0.3V80h-2.6v-0.2h0.3
			c0.2,0,0.4,0,0.5-0.1c0.1-0.1,0.1-0.1,0.2-0.3c0-0.1,0-0.4,0-0.8V75h-0.8c-0.3,0-0.6,0-0.7,0c-0.1,0-0.2,0.1-0.3,0.3
			C99.7,75.5,99.6,75.7,99.6,76z"/>
		<path class="st0" d="M109.7,77.4H107v1.3c0,0.4,0,0.7,0,0.8c0,0.1,0.1,0.2,0.2,0.3c0.1,0.1,0.2,0.1,0.5,0.1h0.1V80h-2.3v-0.2h0.1
			c0.2,0,0.4,0,0.5-0.1c0.1-0.1,0.1-0.1,0.2-0.3c0-0.1,0-0.4,0-0.8v-2.6c0-0.4,0-0.7,0-0.8c0-0.1-0.1-0.2-0.2-0.2
			c-0.1,0-0.2-0.1-0.5-0.1h-0.1v-0.2h2.3V75h-0.1c-0.3,0-0.4,0-0.5,0.1c-0.1,0-0.1,0.1-0.2,0.2c0,0.1,0,0.4,0,0.8v1h2.7v-1
			c0-0.4,0-0.7,0-0.8c0-0.1-0.1-0.2-0.2-0.2c-0.1,0-0.2-0.1-0.5-0.1h-0.1v-0.2h2.4V75h-0.1c-0.3,0-0.4,0-0.5,0.1s-0.1,0.1-0.2,0.2
			s0,0.4,0,0.8v2.6c0,0.4,0,0.7,0,0.8c0,0.1,0.1,0.2,0.2,0.3c0.1,0.1,0.2,0.1,0.5,0.1h0.1V80h-2.4v-0.2h0.2c0.2,0,0.4,0,0.5-0.1
			c0.1-0.1,0.1-0.1,0.2-0.3c0-0.1,0-0.4,0-0.8V77.4z"/>
	</g>
	<g>
		<path class="st0" d="M48.2,91c-0.7,0-1.3-0.4-1.3-1.3c0-0.8,0.4-1.8,1-2.5c0.7-0.8,1.7-1.3,2.3-0.9c0.5,0.4,0.1,1.3-0.7,1.9
			c-0.4,0.3-1.3,0.6-1.6,0.6c-0.2,0.5-0.4,1.8,0.4,1.8c1.2,0,1.9-1.6,2.2-2.3c0.1-0.2,0.4-0.3,0.2,0C50.3,89.5,49.7,91,48.2,91z
			 M48.8,87.4c-0.3,0.4-0.7,1-0.8,1.2c0.2,0,0.9-0.2,1.4-0.6C50.5,87.2,50.4,85.5,48.8,87.4z"/>
		<path class="st0" d="M54.8,86.6c-0.3,0.9-1.4,4.8-3.2,4.4c-0.8-0.2-0.5-1.3-0.1-2.4c-0.1,0.2-0.3,0.1-0.2,0l0.2-0.4
			c0.3-0.5,0.4-1.5,0-1.6c0,0,0.5-0.1,0.6-0.1c0.4,0,0.5-0.1,0.5,0.5c0,0.4-0.2,1.2-0.4,1.6c-0.3,0.9-0.7,1.8-0.3,2
			c0.6,0.3,1.3-0.8,1.9-2.1c-0.2-0.4-0.2-1-0.1-1.3C54.1,85.9,55.1,85.9,54.8,86.6C54.8,86.5,54.8,86.6,54.8,86.6z"/>
		<path class="st0" d="M56,91c-0.7,0-1.3-0.4-1.3-1.3c0-0.8,0.4-1.8,1-2.5c0.7-0.8,1.7-1.3,2.3-0.9c0.5,0.4,0.1,1.3-0.7,1.9
			c-0.4,0.3-1.3,0.6-1.6,0.6c-0.2,0.5-0.4,1.8,0.4,1.8c1.2,0,1.9-1.6,2.2-2.3c0.1-0.2,0.4-0.3,0.2,0C58,89.5,57.4,91,56,91z
			 M56.5,87.4c-0.3,0.4-0.7,1-0.8,1.2c0.2,0,0.9-0.2,1.4-0.6C58.2,87.2,58.1,85.5,56.5,87.4z"/>
		<path class="st0" d="M61.8,91c-0.5,0-1.1-0.3-0.7-1.5c0.1-0.3,0.4-0.8,0.7-1.4c0.3-0.5,0.1-0.9-0.9,0.1c-0.4,0.4-1.1,1.1-1.8,2.6
			c-0.1,0.2-0.2,0.2-0.5,0.2c-0.2,0-0.3,0-0.4,0.1c0.6-1.3,1.2-2.5,1.8-3.7c0.3-0.6,0.5-0.9,0.9-0.8c0.2,0,0.4,0.1,0.6,0.1
			c-0.4,0.2-1.1,1.5-1.6,2.5c0.3-0.3,0.7-0.8,1.1-1.2c0.6-0.6,2-1.4,2.4-1.2c0,0-1.4,2.5-1.6,3.4c-0.1,0.5,0,0.7,0.2,0.7
			c0.7,0,1.5-1.7,1.8-2.3c0.1-0.2,0.3-0.1,0.2,0.1C63.6,89.3,62.8,91,61.8,91z"/>
		<path class="st0" d="M67.8,86.2H67c-0.4,0.8-1,1.5-1.8,2.2c-0.1,0.3-0.3,1.3-0.3,1.3c-0.2,0.9,0.4,1,0.8,0.7c0.6-0.4,1-1.3,1.4-2
			c0.1-0.2,0.3-0.2,0.2,0.1c-0.6,1.2-0.8,1.6-1.3,2.1c-0.7,0.7-2,0.5-1.8-1c0.1-0.9,0.6-2.3,1-3.4h-0.7c-0.1,0-0.1-0.3,0-0.3h0.8
			c0.3-0.7,0.6-1.3,1-1.9c0.9-1.6,2.3-1.4,1.4,0.7c-0.2,0.4-0.4,0.8-0.6,1.1h0.6C67.9,85.9,67.9,86.2,67.8,86.2z M66.1,86.2
			c-0.3,0.6-0.5,1.3-0.7,1.8c0.5-0.5,0.9-1.1,1.3-1.8H66.1z M67.2,84c-0.3,0.4-0.6,1.2-0.9,1.9h0.7c0.3-0.4,0.5-0.9,0.7-1.3
			C67.8,84,68,82.9,67.2,84z"/>
		<path class="st0" d="M69.1,90.9c-0.2,0.1-0.4,0.1-0.5,0.1c-1.6,0-1.3-1.8-0.7-1.9c0.4-0.7,0.8-1.5,1.1-2.3
			c0.2-0.5,0.6-1.1,1.1-1.1c0.2,0,0.4,0,0.5,0.1c0.2,0.1,0.2,0.3-0.1,0.2c-0.1-0.1-0.3-0.1-0.4,0c-0.6,0.3-0.5,1.2-0.3,1.7
			c0.2,0.5,0.5,1,0.5,1.6c0,0.5-0.4,1.1-0.9,1.5l0.1,0c0.4,0.1,0.9-0.2,1.2-0.6c0.3-0.4,0.7-1.2,1-1.7c0.1-0.1,0.3-0.1,0.2,0.1
			C71.4,89.5,70.6,91.3,69.1,90.9z M68.2,89.7c-0.4,0.4-0.3,1,0.3,1c0.1,0,0.2,0,0.3-0.1C68.4,90.5,68.2,90.2,68.2,89.7z M69.3,86.7
			c-0.4,0.7-0.9,1.9-1.2,2.4c0,0,0.3,0,0.3,0.4c0,0.5,0.3,0.9,0.6,1c0.3-0.2,0.5-0.7,0.6-1.4C69.6,88.4,69.2,87.3,69.3,86.7z"/>
	</g>
</g>
</svg>
