<?xml version="1.0" encoding="utf-8"?>
<!-- Generator: Adobe Illustrator 19.1.0, SVG Export Plug-In . SVG Version: 6.00 Build 0)  -->
<svg version="1.1" id="Layer_1" xmlns="http://www.w3.org/2000/svg" xmlns:xlink="http://www.w3.org/1999/xlink" x="0px" y="0px"
	 viewBox="0 0 200 200" style="enable-background:new 0 0 200 200;" xml:space="preserve">
<style type="text/css">
	.st0{fill:#FFFFFF;}
	.st1{fill:#F15B5B;}
</style>
<rect x="-58.1" y="-38" class="st0" width="316.2" height="276"/>
<g>
	<g>
		<g>
			<path class="st1" d="M115.6,80h2.6c-3.9,4.5-7.8,7.6-11.7,9.3c-3.9,1.7-8,2.6-12.3,2.6c-4.6,0-9-1.1-13-3.3
				c-4-2.2-7.2-5.3-9.6-9.4c-2.4-4-3.6-8.8-3.6-14.2c0-2.8,0.4-5.6,1.1-8.6c1.2-4.9,3.2-9.4,6.2-13.5c2.9-4.1,6.7-7.4,11.3-9.9
				c4.6-2.5,9.7-3.7,15.3-3.7c5.9,0,10.8,1.4,14.6,4.1c3.8,2.8,5.7,6.6,5.7,11.4c0,2.5-0.5,4.3-1.6,5.5c-1.1,1.2-2.8,1.8-5.3,1.8
				c-1.5,0-2.7-0.4-3.6-1.1c-0.9-0.7-1.4-1.8-1.4-3.3c0-1.5,0.5-2.7,1.6-3.6c1.1-0.9,2.4-1.4,3.9-1.4c1.8,0,3.3,0.6,4.5,1.8
				c-0.1-2.6-1-5-2.8-6.9c-1.8-2-4-3.5-6.7-4.6c-2.7-1.1-5.3-1.6-7.9-1.6c-5.9,0-10.9,2.4-14.9,7.3c-4,4.8-6.8,10.9-8.5,18.2
				C78.5,61,78,64.9,78,68.4c0,4.5,0.7,8.4,2.2,11.6c1.5,3.2,3.5,5.7,6,7.3c2.6,1.6,5.4,2.5,8.7,2.5C102.5,89.8,109.3,86.6,115.6,80
				z"/>
		</g>
		<g>
			<path class="st1" d="M128.4,77c0-5.3-3-7.9-9.1-7.9h-17.2l-4.6,20.6h8.4c2.4,0,4.5-0.8,6.3-2.3c1.8-1.5,3.1-3.4,3.8-5.7h1.3
				l-4.2,19.5h-1c0-6.4-2.3-9.7-6.8-9.7h-8.2L91,117.3h17.7c3.5,0,6.5-0.8,9-2.5c2.5-1.7,4.3-4,5.3-6.9h1.4l-2.7,11.2H77.1v-1.8h5.8
				L94,69.1h-6.7v-1.8h45.2l-3.2,12.9h-1.3C128.3,78.8,128.4,77.8,128.4,77z"/>
		</g>
		<g>
			<polygon class="st1" points="104.4,90.4 117.9,80.1 114.7,93.5 			"/>
		</g>
	</g>
	<g>
		<path class="st1" d="M22.9,147.3h0.4v4.4h-0.4c-0.1-0.5-0.3-0.9-0.6-1.3c-1.1,1.2-2.5,1.9-4.2,1.9c-1.8,0-3.3-0.6-4.5-1.7
			c-1.2-1.2-1.7-2.7-1.7-4.6c0-1.2,0.3-2.4,0.8-3.5c0.5-1.1,1.3-1.9,2.2-2.4c1-0.5,2-0.8,3.1-0.8c0.9,0,1.8,0.2,2.6,0.6
			c0.8,0.4,1.3,0.8,1.7,1.3c0.3-0.5,0.4-1.1,0.5-1.6h0.4l0.1,4.8h-0.4c-0.3-1.7-0.8-2.9-1.7-3.5c-0.9-0.7-1.8-1-2.9-1
			c-1.3,0-2.4,0.5-3.1,1.6c-0.8,1.1-1.2,2.6-1.2,4.6c0,1.9,0.4,3.3,1.3,4.3c0.8,1,1.9,1.5,3.2,1.5c0.7,0,1.4-0.2,2.1-0.5
			c0.7-0.3,1.3-0.9,1.7-1.7C22.6,148.8,22.8,148,22.9,147.3z"/>
		<path class="st1" d="M26.4,147.6c0-1.4,0.5-2.5,1.4-3.3c0.9-0.8,2-1.2,3.4-1.2c1.4,0,2.5,0.4,3.4,1.2c0.9,0.8,1.4,1.9,1.4,3.3
			c0,1.4-0.4,2.5-1.3,3.3c-0.9,0.8-2,1.3-3.5,1.3c-1.4,0-2.5-0.4-3.4-1.3C26.8,150.1,26.4,148.9,26.4,147.6z M27.9,147.6
			c0,1.4,0.3,2.5,0.8,3.2c0.6,0.7,1.4,1.1,2.5,1.1c1,0,1.8-0.4,2.4-1.1c0.6-0.7,0.9-1.8,0.9-3.2c0-1.4-0.3-2.4-0.9-3.1
			c-0.6-0.7-1.4-1.1-2.5-1.1c-1.1,0-1.9,0.4-2.4,1.1C28.2,145.2,27.9,146.2,27.9,147.6z"/>
		<path class="st1" d="M44.5,143.2h2.9v0.3c-0.4,0-0.7,0.1-0.9,0.3c-0.2,0.1-0.3,0.3-0.4,0.5c0,0.2-0.1,0.5-0.1,1.1v2.9
			c0,0.7,0,1.3-0.1,1.7c-0.1,0.4-0.2,0.7-0.5,1.1c-0.3,0.4-0.7,0.6-1.2,0.8c-0.5,0.2-1.1,0.3-1.8,0.3c-0.8,0-1.4-0.1-2-0.4
			c-0.5-0.3-0.9-0.6-1.2-1c-0.2-0.4-0.3-1-0.3-1.7l0-0.9v-2.7c0-0.7,0-1.2-0.1-1.4c0-0.2-0.1-0.3-0.3-0.4c-0.1-0.1-0.4-0.1-0.9-0.1
			h-0.2v-0.3h4v0.3h-0.2c-0.4,0-0.7,0-0.9,0.1s-0.2,0.2-0.3,0.4c0,0.2-0.1,0.7-0.1,1.4v2.8c0,1,0,1.6,0.1,2s0.3,0.8,0.8,1.1
			c0.4,0.3,1,0.5,1.6,0.5c0.5,0,1-0.1,1.5-0.3c0.4-0.2,0.8-0.5,1-0.8c0.2-0.3,0.3-0.6,0.4-0.9c0-0.3,0.1-0.8,0.1-1.5v-3
			c0-0.5,0-0.8-0.1-1c-0.1-0.2-0.2-0.4-0.4-0.5c-0.2-0.1-0.5-0.2-0.9-0.2V143.2z"/>
		<path class="st1" d="M58.2,152h-2.4c-0.4-0.3-1.1-1.1-1.9-2.3c-0.3-0.4-0.6-0.8-0.9-1.1c-0.3-0.4-0.5-0.6-0.6-0.7
			c-0.1-0.1-0.3-0.1-0.5-0.1h-0.4v2c0,0.7,0,1.1,0,1.4c0,0.2,0.1,0.4,0.3,0.5c0.1,0.1,0.4,0.2,0.8,0.2h0.4v0.3h-4.2v-0.3h0.3
			c0.4,0,0.6,0,0.8-0.1c0.1-0.1,0.2-0.2,0.3-0.4c0-0.2,0.1-0.7,0.1-1.4v-4.3c0-0.7,0-1.2-0.1-1.4s-0.1-0.3-0.3-0.4
			c-0.1-0.1-0.4-0.1-0.9-0.1h-0.1v-0.3l1.3-0.1c0.8,0,1.5-0.1,2-0.1c0.8,0,1.5,0.1,2,0.2c0.5,0.2,1,0.4,1.3,0.8
			c0.3,0.4,0.5,0.8,0.5,1.3c0,0.6-0.2,1.1-0.6,1.5c-0.4,0.4-1,0.7-1.9,0.8c0.4,0.2,1,0.8,1.8,1.9c0.7,0.9,1.2,1.5,1.6,1.8
			c0.4,0.3,0.8,0.4,1.4,0.4V152z M51.5,147.5c0.3,0,0.7,0,1,0c0.3,0,0.6-0.1,0.9-0.1c0.3-0.1,0.5-0.2,0.6-0.3
			c0.2-0.1,0.3-0.3,0.4-0.6c0.1-0.2,0.1-0.5,0.1-0.9c0-0.6-0.2-1.1-0.5-1.5c-0.3-0.4-1-0.6-2-0.6c-0.2,0-0.3,0-0.6,0V147.5z"/>
		<path class="st1" d="M58.3,145.3H58l0-2.1h8.5l0,2.1h-0.3c-0.1-0.6-0.2-1-0.4-1.3c-0.2-0.3-0.4-0.4-0.6-0.5
			c-0.2-0.1-0.5-0.1-1-0.1h-1.4v6.2c0,0.7,0,1.1,0,1.4c0,0.2,0.1,0.4,0.3,0.5c0.1,0.1,0.4,0.2,0.8,0.2h0.4v0.3h-4.4v-0.3h0.5
			c0.4,0,0.6,0,0.8-0.1c0.1-0.1,0.2-0.2,0.3-0.4c0-0.2,0.1-0.7,0.1-1.4v-6.2h-1.3c-0.6,0-0.9,0-1.1,0.1c-0.2,0.1-0.4,0.2-0.5,0.5
			C58.5,144.4,58.4,144.8,58.3,145.3z"/>
		<path class="st1" d="M75.9,152.2l-6.2-8.3v6.1c0,0.5,0,0.8,0.1,1c0,0.2,0.2,0.3,0.4,0.4c0.2,0.1,0.6,0.2,1.1,0.2v0.3H68v-0.3
			c0.4,0,0.7-0.1,1-0.2c0.2-0.1,0.4-0.3,0.4-0.4c0-0.1,0.1-0.5,0.1-1v-4.7c0-0.7,0-1.1-0.1-1.4c-0.1-0.2-0.2-0.4-0.3-0.4
			s-0.4-0.1-0.9-0.1v-0.3h2.6l5.2,6.9v-5.3c0-0.4,0-0.7-0.1-0.8c-0.1-0.2-0.2-0.3-0.5-0.4s-0.5-0.1-0.9-0.1v-0.3h3.2v0.3
			c-0.4,0-0.7,0.1-0.9,0.2c-0.2,0.1-0.4,0.2-0.4,0.4c-0.1,0.2-0.1,0.4-0.1,0.8v7.3H75.9z"/>
		<path class="st1" d="M86.1,149.3h0.3l-0.2,2.7h-7.3v-0.3h0.2c0.4,0,0.7-0.1,0.8-0.2c0.1-0.1,0.2-0.3,0.2-0.4
			c0-0.2,0.1-0.6,0.1-1.4v-4.3c0-0.7,0-1.1-0.1-1.3c0-0.2-0.1-0.4-0.3-0.4c-0.1-0.1-0.4-0.1-0.8-0.1v-0.3h6.3l0.2,2.2h-0.3
			c-0.1-0.6-0.3-1.1-0.5-1.3s-0.4-0.4-0.7-0.5c-0.3-0.1-0.7-0.1-1.3-0.1h-1.2v3.7h0.9c0.4,0,0.7,0,0.9-0.1c0.2-0.1,0.3-0.2,0.3-0.3
			c0.1-0.1,0.1-0.4,0.1-0.9h0.3v3h-0.3c0-0.5,0-0.8-0.1-1c-0.1-0.2-0.2-0.3-0.4-0.3c-0.2,0-0.4-0.1-0.8-0.1h-1v2.1
			c0,1,0.1,1.7,0.2,1.8c0.1,0.2,0.5,0.3,1.1,0.3h0.7c0.5,0,0.8-0.1,1.1-0.2c0.3-0.1,0.6-0.4,0.9-0.7
			C85.7,150.4,85.9,149.9,86.1,149.3z"/>
		<path class="st1" d="M92.6,148.2l1.7-2.9c0.3-0.5,0.4-0.8,0.4-1c0-0.2-0.1-0.3-0.2-0.5c-0.2-0.2-0.4-0.2-0.8-0.2v-0.3h2.9v0.3
			c-0.4,0.1-0.7,0.2-1,0.4c-0.2,0.2-0.6,0.7-0.9,1.3l-2,3.3v1.2c0,0.7,0,1.2,0.1,1.4c0,0.2,0.1,0.4,0.3,0.4c0.1,0.1,0.4,0.1,0.9,0.1
			v0.3h-3.8v-0.3h0.1c0.4,0,0.6,0,0.8-0.1c0.1-0.1,0.2-0.2,0.3-0.4c0-0.2,0.1-0.7,0.1-1.4v-1.1l-2.2-3.6c-0.4-0.7-0.7-1.2-0.9-1.3
			c-0.1-0.1-0.4-0.2-0.8-0.2v-0.3h3.6v0.3c-0.7,0-1,0.2-1,0.5c0,0.1,0.1,0.4,0.3,0.7L92.6,148.2z"/>
		<path class="st1" d="M114.2,148.1h0.4l-0.3,3.9h-10.4v-0.4h0.3c0.6,0,1-0.1,1.2-0.3c0.2-0.2,0.3-0.4,0.3-0.6c0-0.3,0.1-0.9,0.1-2
			v-6.2c0-1,0-1.6-0.1-1.9s-0.2-0.5-0.4-0.6c-0.2-0.1-0.6-0.2-1.2-0.2v-0.4h9l0.3,3.1H113c-0.2-0.9-0.4-1.5-0.7-1.9
			c-0.3-0.4-0.6-0.6-1-0.7c-0.4-0.1-1-0.1-1.9-0.1h-1.7v5.3h1.3c0.6,0,1-0.1,1.3-0.2c0.2-0.1,0.4-0.3,0.5-0.5s0.1-0.6,0.1-1.2h0.4
			v4.3h-0.4c0-0.7-0.1-1.2-0.2-1.4c-0.1-0.2-0.3-0.4-0.5-0.5c-0.2-0.1-0.6-0.1-1.1-0.1h-1.4v3c0,1.5,0.1,2.4,0.3,2.6
			c0.2,0.3,0.7,0.4,1.6,0.4h0.9c0.7,0,1.2-0.1,1.6-0.3c0.4-0.2,0.8-0.5,1.2-1C113.6,149.8,113.9,149,114.2,148.1z"/>
		<path class="st1" d="M124.3,149.4l-0.1,2.6h-7.5v-0.3h0.3c0.4,0,0.6,0,0.8-0.1s0.2-0.2,0.3-0.4c0-0.2,0.1-0.7,0.1-1.4v-4.3
			c0-0.7,0-1.2-0.1-1.4c0-0.2-0.1-0.3-0.3-0.4c-0.1-0.1-0.4-0.1-0.9-0.1h-0.2v-0.3h4.2v0.3h-0.4c-0.4,0-0.7,0-0.9,0.1
			c-0.1,0.1-0.2,0.2-0.3,0.4c0,0.2-0.1,0.7-0.1,1.4v4.6c0,0.6,0,1,0.1,1.2c0,0.2,0.1,0.3,0.3,0.4s0.5,0.1,1,0.1h0.7
			c0.5,0,0.9,0,1.2-0.1c0.3-0.1,0.5-0.3,0.7-0.6c0.2-0.3,0.5-0.8,0.6-1.5H124.3z"/>
		<path class="st1" d="M125.5,143.5v-0.3h4v0.3h-0.2c-0.4,0-0.7,0-0.9,0.1c-0.1,0.1-0.2,0.2-0.3,0.4c0,0.2-0.1,0.7-0.1,1.4v4.3
			c0,0.7,0,1.1,0,1.4c0,0.2,0.1,0.4,0.3,0.5c0.1,0.1,0.4,0.2,0.8,0.2h0.3v0.3h-4v-0.3h0.3c0.4,0,0.6,0,0.8-0.1
			c0.1-0.1,0.2-0.2,0.3-0.4c0-0.2,0.1-0.7,0.1-1.4v-4.3c0-0.7,0-1.2-0.1-1.4c0-0.2-0.1-0.3-0.3-0.4c-0.1-0.1-0.4-0.1-0.9-0.1H125.5z
			"/>
		<path class="st1" d="M131.1,152v-0.2l5.7-8.3H134c-0.6,0-1,0-1.2,0.1c-0.2,0-0.4,0.2-0.6,0.5c-0.2,0.3-0.4,0.7-0.5,1.1h-0.3l0.3-2
			h6.5v0.3l-5.6,8.2h2.7c0.9,0,1.5-0.1,1.7-0.2c0.2-0.1,0.5-0.4,0.7-0.7c0.2-0.4,0.4-0.7,0.5-1h0.3l-0.3,2.3H131.1z"/>
		<path class="st1" d="M145.7,148.8h-3.3l-0.2,0.6c-0.3,0.8-0.5,1.3-0.5,1.6c0,0.3,0.1,0.5,0.3,0.6s0.4,0.2,0.7,0.2v0.3h-2.6v-0.3
			c0.4-0.1,0.7-0.2,0.9-0.4c0.2-0.2,0.4-0.7,0.7-1.4c0-0.1,0.1-0.3,0.3-0.8l2.6-6.1h0.3l2.9,7l0.4,0.9c0.1,0.2,0.2,0.4,0.4,0.5
			c0.2,0.1,0.4,0.2,0.7,0.2v0.3h-3.5v-0.3c0.4,0,0.7,0,0.9-0.1s0.2-0.2,0.2-0.4c0-0.1-0.1-0.4-0.3-0.9L145.7,148.8z M145.5,148.5
			l-1.6-3.8l-1.6,3.8H145.5z"/>
		<path class="st1" d="M154.4,147.3c1,0.1,1.7,0.3,2.2,0.7c0.5,0.4,0.7,1,0.7,1.6c0,0.6-0.2,1-0.5,1.4c-0.3,0.4-0.7,0.7-1.3,0.8
			c-0.5,0.1-1.2,0.2-2.1,0.2H150v-0.3h0.3c0.4,0,0.6,0,0.8-0.1c0.1-0.1,0.2-0.2,0.3-0.4c0-0.2,0.1-0.7,0.1-1.4v-4.3
			c0-0.7,0-1.2-0.1-1.4c0-0.2-0.1-0.4-0.3-0.4c-0.1-0.1-0.4-0.1-0.9-0.1h-0.2v-0.3l1.4,0l1.6-0.1c2.4,0,3.6,0.7,3.6,2.1
			c0,0.6-0.2,1-0.6,1.4C155.8,146.9,155.2,147.2,154.4,147.3z M152.8,147.2c0.1,0,0.2,0,0.3,0c0.9,0,1.6-0.1,1.9-0.4
			s0.5-0.8,0.5-1.4c0-0.5-0.1-0.8-0.2-1.1c-0.1-0.3-0.3-0.4-0.6-0.6c-0.3-0.1-0.7-0.2-1.4-0.2c-0.2,0-0.3,0-0.5,0V147.2z
			 M152.8,147.5v2c0,0.8,0,1.4,0,1.6c0,0.2,0.1,0.4,0.2,0.5c0.1,0.1,0.4,0.2,0.8,0.2c0.7,0,1.2-0.2,1.6-0.5c0.3-0.4,0.5-0.9,0.5-1.6
			c0-0.7-0.2-1.3-0.6-1.6c-0.4-0.3-1.1-0.5-2.1-0.5C153.1,147.5,152.9,147.5,152.8,147.5z"/>
		<path class="st1" d="M166.3,149.3h0.3l-0.2,2.7h-7.3v-0.3h0.2c0.4,0,0.7-0.1,0.8-0.2c0.1-0.1,0.2-0.3,0.2-0.4
			c0-0.2,0.1-0.6,0.1-1.4v-4.3c0-0.7,0-1.1-0.1-1.3c0-0.2-0.1-0.4-0.3-0.4s-0.4-0.1-0.8-0.1v-0.3h6.3l0.2,2.2h-0.3
			c-0.1-0.6-0.3-1.1-0.5-1.3s-0.4-0.4-0.7-0.5c-0.3-0.1-0.7-0.1-1.3-0.1h-1.2v3.7h0.9c0.4,0,0.7,0,0.9-0.1c0.2-0.1,0.3-0.2,0.3-0.3
			c0.1-0.1,0.1-0.4,0.1-0.9h0.3v3H164c0-0.5,0-0.8-0.1-1c-0.1-0.2-0.2-0.3-0.4-0.3c-0.2,0-0.4-0.1-0.8-0.1h-1v2.1
			c0,1,0.1,1.7,0.2,1.8c0.1,0.2,0.5,0.3,1.1,0.3h0.7c0.5,0,0.8-0.1,1.1-0.2c0.3-0.1,0.6-0.4,0.9-0.7
			C165.9,150.4,166.1,149.9,166.3,149.3z"/>
		<path class="st1" d="M168.4,145.3h-0.3l0-2.1h8.5l0,2.1h-0.3c-0.1-0.6-0.2-1-0.4-1.3c-0.2-0.3-0.4-0.4-0.6-0.5
			c-0.2-0.1-0.5-0.1-1-0.1h-1.4v6.2c0,0.7,0,1.1,0,1.4c0,0.2,0.1,0.4,0.3,0.5c0.1,0.1,0.4,0.2,0.8,0.2h0.4v0.3h-4.4v-0.3h0.5
			c0.4,0,0.6,0,0.8-0.1s0.2-0.2,0.3-0.4c0-0.2,0.1-0.7,0.1-1.4v-6.2h-1.3c-0.6,0-0.9,0-1.1,0.1c-0.2,0.1-0.4,0.2-0.5,0.5
			C168.7,144.4,168.5,144.8,168.4,145.3z"/>
		<path class="st1" d="M185.5,147.6h-4.6v2.1c0,0.7,0,1.1,0.1,1.4c0,0.2,0.1,0.4,0.3,0.5c0.1,0.1,0.4,0.2,0.8,0.2h0.2v0.3h-4v-0.3
			h0.2c0.4,0,0.6,0,0.8-0.1c0.1-0.1,0.2-0.2,0.3-0.4c0-0.2,0.1-0.7,0.1-1.4v-4.3c0-0.7,0-1.2-0.1-1.4c0-0.2-0.1-0.3-0.3-0.4
			c-0.1-0.1-0.4-0.1-0.9-0.1h-0.2v-0.3h4v0.3h-0.2c-0.4,0-0.7,0-0.8,0.1c-0.1,0.1-0.2,0.2-0.3,0.4c0,0.2-0.1,0.7-0.1,1.4v1.7h4.6
			v-1.7c0-0.7,0-1.2-0.1-1.4c0-0.2-0.1-0.3-0.3-0.4c-0.1-0.1-0.4-0.1-0.9-0.1h-0.2v-0.3h4v0.3H188c-0.4,0-0.7,0-0.9,0.1
			c-0.1,0.1-0.2,0.2-0.3,0.4c0,0.2-0.1,0.7-0.1,1.4v4.3c0,0.7,0,1.1,0,1.4c0,0.2,0.1,0.4,0.3,0.5c0.1,0.1,0.4,0.2,0.8,0.2h0.2v0.3
			h-4v-0.3h0.3c0.4,0,0.6,0,0.8-0.1c0.1-0.1,0.2-0.2,0.3-0.4c0-0.2,0.1-0.7,0.1-1.4V147.6z"/>
	</g>
	<g>
		<path class="st1" d="M81.6,170.6c-1.1,0-2.1-0.7-2.1-2.1c0-1.3,0.7-3,1.7-4.2c1.1-1.3,2.8-2.2,3.8-1.5c0.8,0.6,0.2,2.2-1.2,3.3
			c-0.7,0.5-2.1,1-2.7,1c-0.3,0.8-0.7,3.1,0.8,3.1c2,0,3.2-2.6,3.7-3.8c0.2-0.4,0.6-0.4,0.4,0C85,168.1,84,170.6,81.6,170.6z
			 M82.5,164.6c-0.6,0.7-1.1,1.7-1.3,2.1c0.4,0,1.6-0.3,2.4-1C85.3,164.2,85.2,161.3,82.5,164.6z"/>
		<path class="st1" d="M92.7,163.1c-0.5,1.6-2.4,8.1-5.5,7.5c-1.3-0.3-0.8-2.3-0.2-4c-0.2,0.4-0.5,0.2-0.4-0.1l0.4-0.8
			c0.4-0.9,0.7-2.6,0.1-2.8c0,0,0.9-0.2,1.1-0.2c0.6-0.1,0.8-0.2,0.8,0.9c0,0.7-0.4,2-0.6,2.7c-0.6,1.5-1.1,3.1-0.5,3.4
			c1.1,0.5,2.3-1.4,3.2-3.6c-0.3-0.7-0.4-1.6-0.2-2.2c0.6-2,2.3-2,1.9-1C92.7,163.1,92.7,163.1,92.7,163.1z"/>
		<path class="st1" d="M94.7,170.6c-1.1,0-2.1-0.7-2.1-2.1c0-1.3,0.7-3,1.7-4.2c1.1-1.3,2.8-2.2,3.8-1.5c0.8,0.6,0.2,2.2-1.2,3.3
			c-0.7,0.5-2.1,1-2.7,1c-0.3,0.8-0.7,3.1,0.8,3.1c2,0,3.2-2.6,3.7-3.8c0.2-0.4,0.6-0.4,0.4,0C98.1,168.1,97.2,170.6,94.7,170.6z
			 M95.6,164.6c-0.6,0.7-1.1,1.7-1.3,2.1c0.4,0,1.6-0.3,2.4-1C98.5,164.2,98.3,161.3,95.6,164.6z"/>
		<path class="st1" d="M104.5,170.6c-0.8,0-1.9-0.5-1.2-2.6c0.2-0.6,0.6-1.3,1.2-2.3c0.5-0.9,0.1-1.5-1.6,0.1
			c-0.8,0.7-1.9,1.9-3.1,4.4c-0.2,0.3-0.4,0.3-0.8,0.3c-0.3,0-0.5,0-0.8,0.1c1.1-2.1,2-4.2,3.1-6.2c0.6-1.1,0.9-1.5,1.6-1.4
			c0.3,0,0.6,0.2,0.9,0.1c-0.7,0.4-1.9,2.6-2.7,4.2c0.4-0.6,1.2-1.4,1.9-2c1.1-1,3.4-2.4,4.1-2.1c0,0-2.4,4.2-2.7,5.8
			c-0.2,0.9,0.1,1.1,0.4,1.1c1.2,0,2.6-2.9,3.1-3.9c0.2-0.4,0.5-0.2,0.3,0.2C107.5,167.8,106.2,170.6,104.5,170.6z"/>
		<path class="st1" d="M114.7,162.5h-1.3c-0.8,1.3-1.7,2.5-3,3.7c-0.2,0.6-0.5,2.3-0.5,2.3c-0.3,1.5,0.7,1.7,1.4,1.2
			c1-0.8,1.8-2.2,2.4-3.4c0.2-0.4,0.5-0.3,0.3,0.1c-1,2.1-1.4,2.7-2.2,3.5c-1.2,1.2-3.4,0.8-3.1-1.7c0.2-1.5,1-4,1.7-5.7h-1.2
			c-0.2,0-0.2-0.5,0-0.5h1.3c0.5-1.1,1.1-2.2,1.6-3.2c1.5-2.7,4-2.3,2.3,1.2c-0.3,0.7-0.6,1.3-1,1.9h1.1
			C114.9,162.1,114.9,162.5,114.7,162.5z M111.8,162.5c-0.5,1.1-0.9,2.2-1.2,3c0.8-0.9,1.6-1.9,2.3-3H111.8z M113.6,158.8
			c-0.5,0.8-1,2-1.6,3.3h1.1c0.4-0.8,0.8-1.5,1.1-2.3C114.7,158.8,115,156.9,113.6,158.8z"/>
		<path class="st1" d="M116.8,170.4c-0.3,0.1-0.6,0.2-0.9,0.2c-2.7,0-2.2-3.1-1.1-3.1c0.6-1.1,1.3-2.6,1.9-3.9
			c0.4-0.9,1.1-1.8,1.9-1.9c0.3,0,0.6,0,0.8,0.1c0.4,0.2,0.3,0.6-0.1,0.4c-0.2-0.1-0.5-0.1-0.7,0c-1,0.5-0.8,2-0.5,2.8
			c0.4,0.8,0.8,1.7,0.8,2.6c0,0.9-0.7,1.9-1.6,2.5l0.2,0c0.8,0.1,1.5-0.4,2-1c0.5-0.6,1.2-2,1.7-2.9c0.1-0.2,0.4-0.1,0.3,0.1
			C120.7,168.2,119.4,171.2,116.8,170.4z M115.3,168.5c-0.7,0.7-0.4,1.8,0.4,1.8c0.2,0,0.3,0,0.4-0.1
			C115.7,169.9,115.4,169.3,115.3,168.5z M117.3,163.4c-0.6,1.2-1.6,3.1-2.1,4.1c0,0,0.5,0,0.5,0.7c0,0.8,0.4,1.5,0.9,1.7
			c0.5-0.4,0.9-1.1,1-2.3C117.6,166.2,117.1,164.4,117.3,163.4z"/>
	</g>
</g>
</svg>
